<?xml version="1.0" standalone="no"?>
<!DOCTYPE svg PUBLIC "-//W3C//DTD SVG 20010904//EN"
 "http://www.w3.org/TR/2001/REC-SVG-20010904/DTD/svg10.dtd">
<svg version="1.0" xmlns="http://www.w3.org/2000/svg"
 width="700.000000pt" height="700.000000pt" viewBox="0 0 700.000000 700.000000"
 preserveAspectRatio="xMidYMid meet">
<metadata>
Created by potrace 1.14, written by Peter Selinger 2001-2017
</metadata>
<g transform="translate(0.000000,700.000000) scale(0.100000,-0.100000)"
fill="#000000" stroke="none">
<path d="M3218 6995 c-1 -1 -42 -6 -89 -9 -47 -4 -94 -8 -105 -10 -10 -2 -46
-7 -79 -10 -33 -4 -127 -20 -210 -37 -839 -167 -1598 -638 -2126 -1319 -67
-87 -219 -305 -219 -315 0 -3 -16 -31 -35 -61 -46 -71 -151 -282 -209 -418
-50 -116 -140 -375 -134 -382 3 -2 26 35 53 83 68 122 188 298 292 428 90 113
316 345 412 425 29 25 59 50 65 55 65 61 307 227 446 306 112 64 325 169 343
169 7 0 17 4 23 9 36 32 426 153 599 186 270 50 372 60 640 60 195 0 294 -5
415 -20 86 -10 123 -15 143 -20 12 -3 35 -7 50 -9 291 -47 688 -189 973 -348
98 -53 361 -221 374 -237 3 -3 23 -19 45 -36 131 -98 339 -293 464 -435 259
-294 459 -627 605 -1006 59 -153 135 -430 152 -554 3 -25 8 -47 9 -50 2 -3 7
-33 10 -65 4 -33 9 -62 10 -65 18 -30 27 -550 12 -707 -15 -165 -48 -361 -83
-498 -9 -33 -17 -67 -19 -75 -2 -8 -19 -65 -39 -127 -65 -205 -177 -463 -266
-609 -22 -36 -40 -68 -40 -71 0 -15 -166 -252 -251 -359 -144 -180 -370 -405
-539 -536 -76 -59 -171 -128 -176 -128 -3 0 -20 -11 -37 -24 -18 -14 -86 -56
-152 -95 -66 -39 -118 -71 -114 -71 16 0 241 78 349 122 339 137 710 363 981
598 79 68 291 278 349 345 202 232 376 488 495 726 26 52 53 105 60 119 43 80
145 355 193 515 29 99 76 300 86 370 4 23 8 50 10 60 2 11 7 45 11 75 4 30 9
63 10 72 19 101 27 591 12 733 -13 121 -28 238 -31 244 -2 3 -7 28 -10 54 -4
26 -11 69 -16 95 -6 26 -13 61 -16 77 -58 286 -212 688 -372 970 -75 132 -248
394 -282 425 -3 3 -30 37 -61 75 -87 109 -135 161 -259 284 -345 341 -724 591
-1176 774 -228 93 -551 183 -764 213 -19 2 -44 6 -55 9 -11 2 -51 7 -90 11
-38 3 -81 8 -95 11 -30 5 -537 13 -542 8z"/>
<path d="M2757 5704 c-1 -1 -38 -4 -82 -8 -91 -8 -245 -29 -304 -41 -9 -2 -50
-11 -91 -20 -364 -77 -751 -257 -1068 -496 -202 -151 -342 -287 -517 -500 -26
-31 -133 -182 -166 -234 -98 -151 -199 -356 -270 -548 -41 -111 -81 -257 -63
-232 8 11 48 71 89 134 334 503 864 876 1460 1027 144 36 160 39 240 50 28 3
59 8 70 10 106 22 508 22 622 -1 12 -2 43 -7 70 -10 26 -4 64 -11 83 -15 19
-5 51 -11 70 -14 129 -19 420 -125 605 -220 127 -65 117 -59 260 -155 631
-423 1034 -1115 1091 -1876 12 -156 7 -397 -10 -505 -3 -14 -10 -59 -16 -100
-46 -311 -185 -670 -368 -950 -194 -298 -473 -573 -760 -752 -53 -34 -99 -63
-102 -65 -9 -9 56 10 185 53 843 277 1525 966 1789 1810 31 98 65 228 72 274
3 19 9 53 14 75 5 22 12 63 15 90 3 28 8 59 10 70 18 88 24 408 11 565 -35
414 -152 801 -351 1155 -31 56 -164 261 -188 291 -9 10 -44 55 -79 99 -90 114
-305 328 -427 424 -96 76 -303 221 -316 221 -3 0 -23 11 -45 25 -122 77 -440
213 -595 255 -313 84 -508 112 -803 114 -74 1 -134 0 -135 0z"/>
<path d="M2198 4405 c-2 -2 -30 -6 -63 -9 -87 -8 -216 -33 -320 -62 -627 -174
-1145 -645 -1368 -1244 -42 -115 -70 -208 -58 -195 4 6 34 41 66 79 106 126
221 230 361 324 134 90 264 153 429 208 299 99 571 114 920 50 52 -10 246 -71
300 -95 95 -42 281 -146 330 -183 153 -119 289 -248 360 -343 16 -22 32 -42
36 -45 3 -3 19 -25 36 -50 138 -205 245 -462 278 -670 4 -25 9 -54 11 -65 23
-119 20 -383 -6 -535 -31 -188 -68 -306 -149 -476 -138 -290 -375 -555 -643
-720 -56 -34 -61 -46 -15 -34 17 5 46 11 62 13 81 13 280 74 394 121 160 67
379 200 512 312 87 72 263 259 332 352 223 299 356 640 394 1007 10 93 10 352
0 442 -61 556 -334 1037 -802 1411 -5 4 -55 38 -110 74 -238 158 -533 273
-805 313 -14 2 -45 7 -70 11 -45 7 -406 14 -412 9z"/>
<path d="M1659 3136 c-2 -2 -24 -6 -49 -10 -81 -10 -114 -18 -195 -42 -91 -28
-95 -30 -190 -75 -159 -76 -302 -187 -417 -324 -79 -94 -72 -85 -122 -167 -79
-129 -141 -299 -171 -463 l-7 -39 45 41 c151 139 354 237 541 261 66 9 239 8
294 -1 309 -49 585 -252 725 -532 70 -141 97 -250 102 -410 9 -286 -87 -530
-290 -732 l-83 -82 57 5 c31 2 67 6 81 9 14 3 41 8 60 11 74 12 206 56 294 98
328 155 558 412 680 764 19 56 34 102 31 102 -2 0 0 14 5 31 34 117 33 397 0
544 -59 256 -170 456 -356 641 -180 178 -396 295 -649 349 -70 15 -374 32
-386 21z"/>
<path d="M1180 1869 c-186 -22 -330 -119 -414 -279 -43 -83 -58 -137 -62 -226
-13 -313 255 -574 566 -550 353 27 585 389 458 716 -88 227 -315 367 -548 339z"/>
</g>
</svg>
