<?xml version="1.0" encoding="UTF-8" standalone="no"?>
<!DOCTYPE svg PUBLIC "-//W3C//DTD SVG 1.1//EN" "http://www.w3.org/Graphics/SVG/1.1/DTD/svg11.dtd">
<svg width="100%" height="100%" viewBox="0 0 5325 1136" version="1.1" xmlns="http://www.w3.org/2000/svg" xmlns:xlink="http://www.w3.org/1999/xlink" xml:space="preserve" xmlns:serif="http://www.serif.com/" style="fill-rule:evenodd;clip-rule:evenodd;stroke-linejoin:round;stroke-miterlimit:2;">
    <g transform="matrix(1,0,0,1,-1519.92,-3624.03)">
        <g transform="matrix(4.16667,0,0,4.16667,0,0)">
            <g transform="matrix(1,0,0,1,686.411,945.803)">
                <path d="M0,41.671L0,90.101C0,95.643 -2.796,98.413 -8.386,98.413L-19.569,98.413C-25.161,98.413 -27.956,95.643 -27.956,90.101L-27.956,-48.43C-27.956,-53.972 -25.161,-56.742 -19.569,-56.742L-8.386,-56.742C-2.796,-56.742 0,-53.972 0,-48.43L0,0L117.533,-51.201C124.987,-54.895 130.578,-56.742 134.307,-56.742L142.695,-56.742C148.286,-56.742 151.082,-53.972 151.082,-48.43C151.082,-44.735 149.217,-42.003 145.491,-40.229L9.059,20.835L145.379,81.789C149.105,83.637 150.97,86.372 150.97,89.99C150.97,95.606 148.175,98.413 142.583,98.413L134.196,98.413C130.467,98.413 124.875,96.567 117.421,92.872L0,41.671Z" style="fill:rgb(218,39,39);fill-rule:nonzero;"/>
            </g>
        </g>
        <g transform="matrix(4.16667,0,0,4.16667,0,0)">
            <g transform="matrix(1,0,0,1,887.704,933.391)">
                <path d="M0,66.495C0,72.629 2.721,77.855 8.164,82.176C13.604,86.498 20.203,88.659 27.958,88.659L95.055,88.659C102.807,88.659 109.406,86.498 114.849,82.176C120.289,77.855 123.013,72.629 123.013,66.495L123.013,-0C123.013,-6.132 120.289,-11.36 114.849,-15.682C109.406,-20.004 102.807,-22.165 95.055,-22.165L27.958,-22.165C20.203,-22.165 13.604,-20.004 8.164,-15.682C2.721,-11.36 0,-6.132 0,-0L0,66.495ZM150.969,66.495C150.969,78.76 145.507,89.214 134.587,97.858C123.664,106.503 110.488,110.825 95.055,110.825L27.958,110.825C12.525,110.825 -0.654,106.503 -11.574,97.858C-22.497,89.214 -27.958,78.76 -27.958,66.495L-27.958,-0C-27.958,-12.264 -22.497,-22.719 -11.574,-31.363C-0.654,-40.008 12.525,-44.33 27.958,-44.33L95.055,-44.33C110.488,-44.33 123.664,-40.008 134.587,-31.363C145.507,-22.719 150.969,-12.264 150.969,-0L150.969,66.495Z" style="fill:rgb(218,39,39);fill-rule:nonzero;"/>
            </g>
        </g>
        <g transform="matrix(4.16667,0,0,4.16667,0,0)">
            <g transform="matrix(1,0,0,1,1184.05,977.721)">
                <path d="M0,-22.165C15.434,-22.165 28.609,-17.843 39.531,-9.199C50.452,-0.554 55.914,9.901 55.914,22.165C55.914,34.43 50.452,44.884 39.531,53.528C28.609,62.173 15.434,66.495 0,66.495L-114.625,66.495C-120.217,66.495 -123.013,63.725 -123.013,58.182L-123.013,52.643C-123.013,47.102 -120.217,44.329 -114.625,44.329L0,44.329C7.752,44.329 14.352,42.168 19.794,37.846C25.234,33.524 27.956,28.299 27.956,22.165C27.956,16.032 25.234,10.805 19.794,6.483C14.352,2.16 7.752,-0.001 0,-0.001L-67.097,-0.001C-82.529,-0.001 -95.709,-4.323 -106.629,-12.966C-117.552,-21.611 -123.013,-32.066 -123.013,-44.331C-123.013,-56.594 -117.552,-67.05 -106.629,-75.693C-95.709,-84.339 -82.529,-88.66 -67.097,-88.66L47.527,-88.66C53.118,-88.66 55.914,-85.89 55.914,-80.348L55.914,-74.807C55.914,-69.267 53.118,-66.495 47.527,-66.495L-67.097,-66.495C-74.852,-66.495 -81.45,-64.334 -86.891,-60.012C-92.334,-55.69 -95.055,-50.462 -95.055,-44.331C-95.055,-38.197 -92.334,-32.971 -86.891,-28.649C-81.45,-24.326 -74.852,-22.165 -67.097,-22.165L0,-22.165Z" style="fill:rgb(218,39,39);fill-rule:nonzero;"/>
            </g>
        </g>
        <g transform="matrix(4.16667,0,0,4.16667,0,0)">
            <g transform="matrix(1,0,0,1,1290.29,955.555)">
                <path d="M0,22.165L0,80.348C0,85.89 -2.796,88.66 -8.387,88.66L-19.57,88.66C-25.162,88.66 -27.958,85.89 -27.958,80.348L-27.958,-58.182C-27.958,-63.724 -25.162,-66.495 -19.57,-66.495L-8.387,-66.495C-2.796,-66.495 0,-63.724 0,-58.182L0,0.001L123.011,0.001L123.011,-58.182C123.011,-63.724 125.807,-66.495 131.399,-66.495L142.582,-66.495C148.173,-66.495 150.969,-63.724 150.969,-58.182L150.969,80.348C150.969,85.89 148.173,88.66 142.582,88.66L131.399,88.66C125.807,88.66 123.011,85.89 123.011,80.348L123.011,22.165L0,22.165Z" style="fill:rgb(218,39,39);fill-rule:nonzero;"/>
            </g>
        </g>
        <g transform="matrix(4.16667,0,0,4.16667,0,0)">
            <g transform="matrix(1,0,0,1,1589.32,944.474)">
                <path d="M0,44.329L-36.231,-23.275L-72.465,44.329L0,44.329ZM-84.319,66.495L-97.738,91.43C-101.467,96.972 -105.194,99.742 -108.921,99.742L-117.308,99.742C-122.899,99.742 -125.695,97.01 -125.695,91.541C-125.695,89.62 -124.763,86.813 -122.899,83.118L-50.211,-47.101C-48.348,-52.643 -45.552,-55.413 -41.823,-55.413L-30.64,-55.413C-26.914,-55.413 -24.118,-52.643 -22.253,-47.101L50.437,83.229C52.298,86.85 53.231,89.584 53.231,91.43C53.231,96.972 50.437,99.742 44.844,99.742L36.457,99.742C32.728,99.742 29.001,96.972 25.274,91.43L11.855,66.495L-84.319,66.495Z" style="fill:rgb(218,39,39);fill-rule:nonzero;"/>
            </g>
        </g>
        <g transform="matrix(4.16667,0,0,4.16667,0,0)">
            <g transform="matrix(1,0,0,1,691.806,1122.51)">
                <path d="M0,-46.198L0,-40.177L-12.891,-40.177L-12.891,0L-20.416,0L-20.416,-40.177L-33.241,-40.177L-33.241,-46.198L0,-46.198Z" style="fill:rgb(218,39,39);fill-rule:nonzero;"/>
            </g>
        </g>
        <g transform="matrix(4.16667,0,0,4.16667,0,0)">
            <g transform="matrix(1,0,0,1,726.42,1116.49)">
                <path d="M0,-34.156L0,-20.153L17.013,-20.153L17.013,-14.395L0,-14.395L0,-0.065L18.976,-0.065L18.976,6.021L-7.459,6.021L-7.459,-40.177L18.976,-40.177L18.976,-34.156L0,-34.156Z" style="fill:rgb(218,39,39);fill-rule:nonzero;"/>
            </g>
        </g>
        <g transform="matrix(4.16667,0,0,4.16667,0,0)">
            <g transform="matrix(1,0,0,1,808.999,1118.58)">
                <path d="M0,-38.411C3.752,-35.53 6.282,-31.627 7.59,-26.697L-0.328,-26.697C-1.418,-29.488 -3.153,-31.703 -5.529,-33.34C-7.907,-34.974 -10.819,-35.794 -14.265,-35.794C-17.013,-35.794 -19.468,-35.115 -21.626,-33.765C-23.786,-32.412 -25.487,-30.481 -26.73,-27.973C-27.973,-25.466 -28.595,-22.53 -28.595,-19.173C-28.595,-15.856 -27.973,-12.945 -26.73,-10.437C-25.487,-7.928 -23.786,-5.998 -21.626,-4.645C-19.468,-3.294 -17.013,-2.617 -14.265,-2.617C-10.819,-2.617 -7.907,-3.435 -5.529,-5.07C-3.153,-6.708 -1.418,-8.898 -0.328,-11.647L7.59,-11.647C6.282,-6.718 3.752,-2.823 0,0.032C-3.752,2.89 -8.464,4.318 -14.134,4.318C-18.496,4.318 -22.357,3.326 -25.716,1.342C-29.076,-0.643 -31.67,-3.413 -33.502,-6.969C-35.334,-10.523 -36.251,-14.592 -36.251,-19.173C-36.251,-23.754 -35.334,-27.82 -33.502,-31.377C-31.67,-34.932 -29.076,-37.713 -25.716,-39.72C-22.357,-41.725 -18.496,-42.729 -14.134,-42.729C-8.464,-42.729 -3.752,-41.291 0,-38.411" style="fill:rgb(218,39,39);fill-rule:nonzero;"/>
            </g>
        </g>
        <g transform="matrix(4.16667,0,0,4.16667,0,0)">
            <g transform="matrix(1,0,0,1,882.351,1122.51)">
                <path d="M0,-46.198L0,0L-7.525,0L-7.525,-20.744L-29.249,-20.744L-29.249,0L-36.709,0L-36.709,-46.198L-29.249,-46.198L-29.249,-26.83L-7.525,-26.83L-7.525,-46.198L0,-46.198Z" style="fill:rgb(218,39,39);fill-rule:nonzero;"/>
            </g>
        </g>
        <g transform="matrix(4.16667,0,0,4.16667,0,0)">
            <g transform="matrix(1,0,0,1,950.338,1076.37)">
                <path d="M0,46.132L-7.461,46.132L-29.904,12.041L-29.904,46.132L-37.365,46.132L-37.365,0L-29.904,0L-7.461,34.223L-7.461,0L0,0L0,46.132Z" style="fill:rgb(218,39,39);fill-rule:nonzero;"/>
            </g>
        </g>
        <g transform="matrix(4.16667,0,0,4.16667,0,0)">
            <g transform="matrix(1,0,0,1,994.44,1114.06)">
                <path d="M0,-29.38C-2.312,-28.028 -4.112,-26.085 -5.399,-23.556C-6.686,-21.026 -7.328,-18.081 -7.328,-14.722C-7.328,-11.362 -6.686,-8.418 -5.399,-5.889C-4.112,-3.359 -2.312,-1.417 0,-0.066C2.312,1.287 4.95,1.964 7.918,1.964C10.84,1.964 13.447,1.287 15.737,-0.066C18.028,-1.417 19.815,-3.359 21.104,-5.889C22.39,-8.418 23.034,-11.362 23.034,-14.722C23.034,-18.081 22.39,-21.026 21.104,-23.556C19.815,-26.085 18.028,-28.028 15.737,-29.38C13.447,-30.733 10.84,-31.409 7.918,-31.409C4.95,-31.409 2.312,-30.733 0,-29.38M19.532,-35.335C23.001,-33.327 25.728,-30.526 27.713,-26.926C29.697,-23.328 30.69,-19.258 30.69,-14.722C30.69,-10.186 29.697,-6.117 27.713,-2.52C25.728,1.08 23.001,3.893 19.532,5.923C16.065,7.95 12.192,8.965 7.918,8.965C3.599,8.965 -0.295,7.95 -3.762,5.923C-7.231,3.893 -9.968,1.08 -11.974,-2.52C-13.981,-6.117 -14.984,-10.186 -14.984,-14.722C-14.984,-19.258 -13.981,-23.328 -11.974,-26.926C-9.968,-30.526 -7.231,-33.327 -3.762,-35.335C-0.295,-37.341 3.599,-38.345 7.918,-38.345C12.192,-38.345 16.065,-37.341 19.532,-35.335" style="fill:rgb(218,39,39);fill-rule:nonzero;"/>
            </g>
        </g>
        <g transform="matrix(4.16667,0,0,4.16667,0,0)">
            <g transform="matrix(1,0,0,1,1119.88,1082.17)">
                <path d="M0,34.353C-1.092,36.295 -2.749,37.855 -4.974,39.032C-7.198,40.209 -9.926,40.799 -13.152,40.799C-16.294,40.799 -19.107,40.243 -21.594,39.13C-24.08,38.017 -26.066,36.457 -27.549,34.452C-29.032,32.446 -29.883,30.133 -30.101,27.516L-22.117,27.516C-21.899,29.522 -21.037,31.245 -19.532,32.685C-18.028,34.124 -16.011,34.844 -13.48,34.844C-11.212,34.844 -9.455,34.234 -8.212,33.012C-6.97,31.79 -6.348,30.22 -6.348,28.301C-6.348,26.644 -6.806,25.28 -7.722,24.21C-8.638,23.142 -9.772,22.303 -11.123,21.692C-12.478,21.081 -14.331,20.383 -16.687,19.597C-19.565,18.682 -21.91,17.765 -23.721,16.85C-25.531,15.933 -27.069,14.604 -28.333,12.858C-29.6,11.113 -30.232,8.823 -30.232,5.988C-30.232,3.499 -29.621,1.319 -28.398,-0.556C-27.179,-2.431 -25.433,-3.883 -23.163,-4.908C-20.896,-5.932 -18.279,-6.446 -15.313,-6.446C-10.601,-6.446 -6.86,-5.311 -4.091,-3.043C-1.32,-0.774 0.262,2.191 0.653,5.856L-7.395,5.856C-7.7,4.112 -8.519,2.617 -9.848,1.374C-11.18,0.13 -13,-0.492 -15.313,-0.492C-17.406,-0.492 -19.085,0.042 -20.351,1.112C-21.616,2.181 -22.248,3.719 -22.248,5.725C-22.248,7.294 -21.813,8.594 -20.939,9.619C-20.067,10.645 -18.967,11.451 -17.635,12.04C-16.306,12.628 -14.484,13.316 -12.171,14.101C-9.249,15.017 -6.86,15.944 -5.007,16.883C-3.153,17.821 -1.582,19.183 -0.296,20.972C0.991,22.761 1.635,25.116 1.635,28.039C1.635,30.308 1.089,32.413 0,34.353" style="fill:rgb(218,39,39);fill-rule:nonzero;"/>
            </g>
        </g>
        <g transform="matrix(4.16667,0,0,4.16667,0,0)">
            <g transform="matrix(1,0,0,1,1180.28,1122.51)">
                <path d="M0,-46.198L0,-40.177L-12.891,-40.177L-12.891,0L-20.416,0L-20.416,-40.177L-33.242,-40.177L-33.242,-46.198L0,-46.198Z" style="fill:rgb(218,39,39);fill-rule:nonzero;"/>
            </g>
        </g>
        <g transform="matrix(4.16667,0,0,4.16667,0,0)">
            <g transform="matrix(1,0,0,1,1214.89,1100.06)">
                <path d="M0,-1.308L8.245,-1.308C14.266,-1.308 17.275,-3.969 17.275,-9.292C17.275,-11.822 16.545,-13.795 15.083,-15.213C13.621,-16.63 11.342,-17.34 8.245,-17.34L0,-17.34L0,-1.308ZM16.818,22.445L5.301,3.991L0,3.991L0,22.445L-7.459,22.445L-7.459,-23.753L8.834,-23.753C14.112,-23.753 18.115,-22.465 20.841,-19.892C23.567,-17.318 24.931,-13.914 24.931,-9.685C24.931,-6.064 23.918,-3.097 21.889,-0.786C19.86,1.528 16.926,3.009 13.088,3.665L25.194,22.445L16.818,22.445Z" style="fill:rgb(218,39,39);fill-rule:nonzero;"/>
            </g>
        </g>
        <g transform="matrix(4.16667,0,0,4.16667,0,0)">
            <g transform="matrix(1,0,0,1,1293.61,1092.8)">
                <path d="M0,13.936L-7.656,-7.657L-15.312,13.936L0,13.936ZM2.095,19.695L-17.406,19.695L-20.939,29.707L-28.922,29.707L-11.909,-15.771L-3.338,-15.771L13.61,29.707L5.628,29.707L2.095,19.695Z" style="fill:rgb(218,39,39);fill-rule:nonzero;"/>
            </g>
        </g>
        <g transform="matrix(4.16667,0,0,4.16667,0,0)">
            <g transform="matrix(1,0,0,1,1364.08,1122.51)">
                <path d="M0,-46.198L0,-40.177L-12.891,-40.177L-12.891,0L-20.415,0L-20.415,-40.177L-33.241,-40.177L-33.241,-46.198L0,-46.198Z" style="fill:rgb(218,39,39);fill-rule:nonzero;"/>
            </g>
        </g>
        <g transform="matrix(4.16667,0,0,4.16667,0,0)">
            <g transform="matrix(1,0,0,1,1398.7,1116.49)">
                <path d="M0,-34.156L0,-20.153L17.013,-20.153L17.013,-14.395L0,-14.395L0,-0.065L18.976,-0.065L18.976,6.021L-7.46,6.021L-7.46,-40.177L18.976,-40.177L18.976,-34.156L0,-34.156Z" style="fill:rgb(218,39,39);fill-rule:nonzero;"/>
            </g>
        </g>
        <g transform="matrix(4.16667,0,0,4.16667,0,0)">
            <g transform="matrix(1,0,0,1,1481.41,1118.91)">
                <path d="M0,-38.935C3.663,-36.229 6.085,-32.544 7.264,-27.876L-0.59,-27.876C-1.594,-30.362 -3.239,-32.347 -5.529,-33.831C-7.82,-35.313 -10.536,-36.055 -13.678,-36.055C-16.556,-36.055 -19.141,-35.379 -21.431,-34.027C-23.722,-32.674 -25.511,-30.755 -26.796,-28.269C-28.083,-25.783 -28.727,-22.859 -28.727,-19.499C-28.727,-15.967 -28.072,-12.934 -26.764,-10.405C-25.454,-7.873 -23.612,-5.944 -21.234,-4.614C-18.857,-3.283 -16.098,-2.618 -12.957,-2.618C-9.119,-2.618 -5.824,-3.806 -3.075,-6.184C-0.328,-8.561 1.331,-11.822 1.896,-15.967L-15.051,-15.967L-15.051,-21.463L8.179,-21.463L8.179,-14.33C7.655,-10.928 6.444,-7.841 4.548,-5.072C2.649,-2.3 0.141,-0.088 -2.978,1.569C-6.098,3.228 -9.663,4.057 -13.678,4.057C-18.171,4.057 -22.141,3.054 -25.585,1.046C-29.032,-0.96 -31.693,-3.74 -33.568,-7.297C-35.445,-10.852 -36.383,-14.92 -36.383,-19.499C-36.383,-24.081 -35.445,-28.148 -33.568,-31.704C-31.693,-35.259 -29.044,-38.028 -25.618,-40.014C-22.193,-41.998 -18.235,-42.992 -13.741,-42.992C-8.245,-42.992 -3.664,-41.639 0,-38.935" style="fill:rgb(218,39,39);fill-rule:nonzero;"/>
            </g>
        </g>
        <g transform="matrix(4.16667,0,0,4.16667,0,0)">
            <g transform="matrix(-1,0,0,1,3044.86,198.814)">
                <rect x="1518.7" y="877.494" width="7.459" height="46.198" style="fill:rgb(218,39,39);"/>
            </g>
        </g>
        <g transform="matrix(4.16667,0,0,4.16667,0,0)">
            <g transform="matrix(1,0,0,1,1564.24,1116.49)">
                <path d="M0,-34.156L0,-20.153L17.014,-20.153L17.014,-14.395L0,-14.395L0,-0.065L18.977,-0.065L18.977,6.021L-7.459,6.021L-7.459,-40.177L18.977,-40.177L18.977,-34.156L0,-34.156Z" style="fill:rgb(218,39,39);fill-rule:nonzero;"/>
            </g>
        </g>
        <g transform="matrix(4.16667,0,0,4.16667,0,0)">
            <g transform="matrix(1,0,0,1,1640.8,1082.17)">
                <path d="M0,34.353C-1.092,36.295 -2.747,37.855 -4.974,39.032C-7.198,40.209 -9.926,40.799 -13.152,40.799C-16.293,40.799 -19.107,40.243 -21.594,39.13C-24.08,38.017 -26.066,36.457 -27.549,34.452C-29.032,32.446 -29.883,30.133 -30.101,27.516L-22.117,27.516C-21.899,29.522 -21.037,31.245 -19.532,32.685C-18.026,34.124 -16.01,34.844 -13.48,34.844C-11.211,34.844 -9.455,34.234 -8.212,33.012C-6.97,31.79 -6.348,30.22 -6.348,28.301C-6.348,26.644 -6.806,25.28 -7.722,24.21C-8.638,23.142 -9.772,22.303 -11.123,21.692C-12.478,21.081 -14.331,20.383 -16.687,19.597C-19.565,18.682 -21.91,17.765 -23.721,16.85C-25.53,15.933 -27.069,14.604 -28.333,12.858C-29.6,11.113 -30.23,8.823 -30.23,5.988C-30.23,3.499 -29.621,1.319 -28.398,-0.556C-27.179,-2.431 -25.433,-3.883 -23.163,-4.908C-20.896,-5.932 -18.279,-6.446 -15.313,-6.446C-10.601,-6.446 -6.86,-5.311 -4.09,-3.043C-1.319,-0.774 0.262,2.191 0.654,5.856L-7.394,5.856C-7.699,4.112 -8.519,2.617 -9.848,1.374C-11.18,0.13 -13,-0.492 -15.313,-0.492C-17.406,-0.492 -19.085,0.042 -20.351,1.112C-21.616,2.181 -22.248,3.719 -22.248,5.725C-22.248,7.294 -21.813,8.594 -20.939,9.619C-20.067,10.645 -18.967,11.451 -17.635,12.04C-16.306,12.628 -14.483,13.316 -12.171,14.101C-9.248,15.017 -6.86,15.944 -5.005,16.883C-3.151,17.821 -1.581,19.183 -0.295,20.972C0.992,22.761 1.637,25.116 1.637,28.039C1.637,30.308 1.091,32.413 0,34.353" style="fill:rgb(218,39,39);fill-rule:nonzero;"/>
            </g>
        </g>
        <g transform="matrix(4.16667,0,0,4.16667,0,0)">
            <g transform="matrix(1,0,0,1,596.868,1100.12)">
                <path d="M0,-189.586C-24.785,-214.412 -57.724,-228.853 -92.752,-230.249C-131.346,-231.785 -169.151,-217.024 -196.47,-189.751C-213.609,-172.64 -225.727,-151.841 -232.087,-129.141C-226.14,-140.568 -218.413,-151.138 -209.035,-160.501C-196.274,-173.239 -181.328,-182.931 -164.607,-189.309C-148.459,-195.47 -131.484,-198.242 -114.148,-197.551C-82.099,-196.274 -51.961,-183.063 -29.287,-160.35C-5.301,-136.323 7.893,-104.394 7.865,-70.445C7.837,-36.493 -5.411,-4.588 -29.437,19.399C-38.692,28.638 -49.104,36.267 -60.502,42.199C-37.914,35.792 -17.039,23.729 -0.165,6.884C54.047,-47.237 54.121,-135.374 0,-189.586" style="fill:rgb(248,152,56);fill-rule:nonzero;"/>
            </g>
        </g>
        <g transform="matrix(4.16667,0,0,4.16667,0,0)">
            <g transform="matrix(1,0,0,1,554.9,947.751)">
                <path d="M0,159.222C20.674,138.581 32.074,111.127 32.098,81.914C32.122,52.702 20.769,25.228 0.13,4.555C-19.381,-14.991 -45.313,-26.358 -72.887,-27.456C-103.271,-28.667 -133.031,-17.047 -154.537,4.424C-169.019,18.881 -178.586,36.421 -183.252,54.953C-178.973,47.325 -173.59,40.152 -167.102,33.675C-147.921,14.526 -121.38,4.161 -94.284,5.24C-69.687,6.221 -46.559,16.36 -29.156,33.791C-10.748,52.23 -0.622,76.734 -0.644,102.787C-0.667,128.842 -10.834,153.328 -29.271,171.737C-35.684,178.138 -42.92,183.55 -50.722,187.889C-31.704,183.115 -14.083,173.281 0,159.222" style="fill:rgb(21,137,66);fill-rule:nonzero;"/>
            </g>
        </g>
        <g transform="matrix(4.16667,0,0,4.16667,0,0)">
            <g transform="matrix(1,0,0,1,513.098,992.346)">
                <path d="M0,114.59C15.085,99.528 23.404,79.494 23.423,58.178C23.441,36.86 15.156,16.812 0.095,1.725C-14.143,-12.537 -33.065,-20.832 -53.188,-21.634C-75.359,-22.517 -97.077,-14.038 -112.77,1.63C-123.19,12.032 -130.123,24.62 -133.578,37.937C-131.52,35.114 -129.218,32.418 -126.671,29.874C-113.301,16.527 -94.803,9.306 -75.919,10.058C-58.775,10.74 -42.656,17.806 -30.527,29.956C-17.697,42.807 -10.639,59.887 -10.655,78.045C-10.671,96.204 -17.757,113.271 -30.607,126.1C-34.953,130.44 -39.843,134.126 -45.108,137.107C-28.169,134.668 -12.25,126.819 0,114.59" style="fill:rgb(250,203,5);fill-rule:nonzero;"/>
            </g>
        </g>
        <g transform="matrix(4.16667,0,0,4.16667,0,0)">
            <g transform="matrix(1,0,0,1,469.961,1034.22)">
                <path d="M0,71.673C9.497,62.191 14.735,49.577 14.747,36.154C14.759,22.734 9.542,10.109 0.059,0.611C-8.905,-8.369 -20.819,-13.592 -33.488,-14.096C-47.449,-14.653 -61.122,-9.313 -71.005,0.55C-79.201,8.735 -83.963,19.068 -85.313,29.757C-84.986,29.405 -84.657,29.053 -84.315,28.709C-76.757,21.165 -66.303,17.081 -55.629,17.508C-45.939,17.894 -36.827,21.888 -29.972,28.753C-22.721,36.018 -18.732,45.67 -18.74,55.936C-18.749,66.198 -22.754,75.846 -30.018,83.098C-31.184,84.261 -32.425,85.332 -33.719,86.326C-21.102,85.867 -8.984,80.643 0,71.673" style="fill:rgb(218,39,39);fill-rule:nonzero;"/>
            </g>
        </g>
        <g transform="matrix(4.16667,0,0,4.16667,0,0)">
            <g transform="matrix(1,0,0,1,398.152,1075.51)">
                <path d="M0,29.234C3.69,32.932 8.597,35.084 13.812,35.291C19.646,35.524 25.132,33.38 29.262,29.258C33.172,25.353 35.329,20.16 35.333,14.633C35.339,9.107 33.191,3.911 29.285,-0.002C25.595,-3.701 20.689,-5.85 15.474,-6.059C9.64,-6.29 4.153,-4.149 0.025,-0.027C-3.886,3.878 -6.043,9.072 -6.047,14.6C-6.052,20.126 -3.905,25.324 0,29.234" style="fill:rgb(71,114,184);fill-rule:nonzero;"/>
            </g>
        </g>
    </g>
</svg>
