<?xml version="1.0" encoding="UTF-8" standalone="no"?>
<!DOCTYPE svg PUBLIC "-//W3C//DTD SVG 1.1//EN" "http://www.w3.org/Graphics/SVG/1.1/DTD/svg11.dtd">
<svg width="100%" height="100%" viewBox="0 0 1136 1136" version="1.1" xmlns="http://www.w3.org/2000/svg" xmlns:xlink="http://www.w3.org/1999/xlink" xml:space="preserve" xmlns:serif="http://www.serif.com/" style="fill-rule:evenodd;clip-rule:evenodd;stroke-linejoin:round;stroke-miterlimit:2;">
    <g transform="matrix(1,0,0,1,-1519.92,-3624.03)">
        <g transform="matrix(4.16667,0,0,4.16667,0,0)">
            <g transform="matrix(1,0,0,1,596.868,1100.12)">
                <path d="M0,-189.586C-24.785,-214.412 -57.724,-228.853 -92.752,-230.249C-131.346,-231.785 -169.151,-217.024 -196.47,-189.751C-213.609,-172.64 -225.727,-151.841 -232.087,-129.141C-226.14,-140.568 -218.413,-151.138 -209.035,-160.501C-196.274,-173.239 -181.328,-182.931 -164.607,-189.309C-148.459,-195.47 -131.484,-198.242 -114.148,-197.551C-82.099,-196.274 -51.961,-183.063 -29.287,-160.35C-5.301,-136.323 7.893,-104.394 7.865,-70.445C7.837,-36.493 -5.411,-4.588 -29.437,19.399C-38.692,28.638 -49.104,36.267 -60.502,42.199C-37.914,35.792 -17.039,23.729 -0.165,6.884C54.047,-47.237 54.121,-135.374 0,-189.586" style="fill:rgb(248,152,56);fill-rule:nonzero;"/>
            </g>
        </g>
        <g transform="matrix(4.16667,0,0,4.16667,0,0)">
            <g transform="matrix(1,0,0,1,554.9,947.751)">
                <path d="M0,159.222C20.674,138.581 32.074,111.127 32.098,81.914C32.122,52.702 20.769,25.228 0.13,4.555C-19.381,-14.991 -45.313,-26.358 -72.887,-27.456C-103.271,-28.667 -133.031,-17.047 -154.537,4.424C-169.019,18.881 -178.586,36.421 -183.252,54.953C-178.973,47.325 -173.59,40.152 -167.102,33.675C-147.921,14.526 -121.38,4.161 -94.284,5.24C-69.687,6.221 -46.559,16.36 -29.156,33.791C-10.748,52.23 -0.622,76.734 -0.644,102.787C-0.667,128.842 -10.834,153.328 -29.271,171.737C-35.684,178.138 -42.92,183.55 -50.722,187.889C-31.704,183.115 -14.083,173.281 0,159.222" style="fill:rgb(21,137,66);fill-rule:nonzero;"/>
            </g>
        </g>
        <g transform="matrix(4.16667,0,0,4.16667,0,0)">
            <g transform="matrix(1,0,0,1,513.098,992.346)">
                <path d="M0,114.59C15.085,99.528 23.404,79.494 23.423,58.178C23.441,36.86 15.156,16.812 0.095,1.725C-14.143,-12.537 -33.065,-20.832 -53.188,-21.634C-75.359,-22.517 -97.077,-14.038 -112.77,1.63C-123.19,12.032 -130.123,24.62 -133.578,37.937C-131.52,35.114 -129.218,32.418 -126.671,29.874C-113.301,16.527 -94.803,9.306 -75.919,10.058C-58.775,10.74 -42.656,17.806 -30.527,29.956C-17.697,42.807 -10.639,59.887 -10.655,78.045C-10.671,96.204 -17.757,113.271 -30.607,126.1C-34.953,130.44 -39.843,134.126 -45.108,137.107C-28.169,134.668 -12.25,126.819 0,114.59" style="fill:rgb(250,203,5);fill-rule:nonzero;"/>
            </g>
        </g>
        <g transform="matrix(4.16667,0,0,4.16667,0,0)">
            <g transform="matrix(1,0,0,1,469.961,1034.22)">
                <path d="M0,71.673C9.497,62.191 14.735,49.577 14.747,36.154C14.759,22.734 9.542,10.109 0.059,0.611C-8.905,-8.369 -20.819,-13.592 -33.488,-14.096C-47.449,-14.653 -61.122,-9.313 -71.005,0.55C-79.201,8.735 -83.963,19.068 -85.313,29.757C-84.986,29.405 -84.657,29.053 -84.315,28.709C-76.757,21.165 -66.303,17.081 -55.629,17.508C-45.939,17.894 -36.827,21.888 -29.972,28.753C-22.721,36.018 -18.732,45.67 -18.74,55.936C-18.749,66.198 -22.754,75.846 -30.018,83.098C-31.184,84.261 -32.425,85.332 -33.719,86.326C-21.102,85.867 -8.984,80.643 0,71.673" style="fill:rgb(218,39,39);fill-rule:nonzero;"/>
            </g>
        </g>
        <g transform="matrix(4.16667,0,0,4.16667,0,0)">
            <g transform="matrix(1,0,0,1,398.152,1075.51)">
                <path d="M0,29.234C3.69,32.932 8.597,35.084 13.812,35.291C19.646,35.524 25.132,33.38 29.262,29.258C33.172,25.353 35.329,20.16 35.333,14.633C35.339,9.107 33.191,3.911 29.285,-0.002C25.595,-3.701 20.689,-5.85 15.474,-6.059C9.64,-6.29 4.153,-4.149 0.025,-0.027C-3.886,3.878 -6.043,9.072 -6.047,14.6C-6.052,20.126 -3.905,25.324 0,29.234" style="fill:rgb(71,114,184);fill-rule:nonzero;"/>
            </g>
        </g>
    </g>
</svg>
